<svg width="18" height="13" viewBox="0 0 18 13" fill="none" xmlns="http://www.w3.org/2000/svg">
<path d="M2.11087 4.93758C1.82401 5.14062 1.37226 5.55123 1.14284 5.81746C0.771219 6.2514 0.91728 6.54176 2.04437 7.65211L3.41432 8.96483L4.22102 8.2316L5.02772 7.49836L3.85137 6.00967C2.85335 4.782 2.57822 4.60896 2.11087 4.93758Z" fill="#15AC31"/>
<path d="M5.80801 10.9501C6.09487 10.7471 6.54662 10.3365 6.77605 10.0702C7.14766 9.63629 7.0016 9.34594 5.87451 8.23559L4.50456 6.92287L3.69786 7.6561L2.89117 8.38933L4.06751 9.87803C5.06553 11.1057 5.34066 11.2787 5.80801 10.9501Z" fill="#15AC31"/>
<path d="M4.51029 9.64347C4.68518 9.95405 5.08756 10.4131 5.37253 10.6272C5.83791 10.9731 6.29904 10.6849 8.27817 8.83435L10.6322 6.59717L9.91367 5.77736L9.19513 4.95754L6.66865 6.99796C4.57456 8.71739 4.22839 9.13676 4.51029 9.64347Z" fill="#15AC31"/>
<path d="M14.3143 2.79012C14.1394 2.47954 13.7371 2.02044 13.4521 1.80635C12.9867 1.46045 12.5256 1.74865 10.5464 3.59925L8.19241 5.83642L8.91095 6.65624L9.62948 7.47605L12.156 5.43563C14.2501 3.7162 14.5962 3.29683 14.3143 2.79012Z" fill="#15AC31"/>
</svg>
