<svg width="28" height="27" viewBox="0 0 28 27" fill="none" xmlns="http://www.w3.org/2000/svg">
<path d="M1.33334 1.40002C1.33334 3.26669 26.1333 27.1334 27.0667 26.2C27.6 25.6667 27.0667 24.0667 25.7333 22.7334C23.7333 20.4667 23.7333 20.2 26 17.6667C31.4667 11.6667 24.2667 4.06669 13.3333 4.06669C9.33334 4.20002 6.26667 3.40002 5.33334 2.20002C3.6 0.200019 1.33334 -0.333314 1.33334 1.40002ZM22.4 9.13335C25.7333 11.4 26.1333 13.9334 23.3333 16.3334C20.9333 18.3334 18.6667 17 18.6667 13.5334C18.6667 12.0667 17.7333 10.6 16.6667 10.3334C15.6 9.93335 13.7333 9.40002 12.5333 9.00002C11.4667 8.60002 10.9333 7.66669 11.3333 6.86669C12.4 5.13335 18 6.33335 22.4 9.13335Z" fill="#2374FF"/>
<path d="M1.33333 11C-1.33333 16.0667 6 23 14.1333 23C16 23 17.0667 22.4667 16.6667 21.6667C16.2667 20.8667 14.4 20.3333 12.5333 20.3333C8 20.3333 1.86667 14.2 4 11.6667C4.93333 10.6 4.93333 9.66667 4.13333 9.13333C3.33333 8.6 2.13333 9.53333 1.33333 11Z" fill="#2374FF"/>
</svg>
