<svg width="17" height="17" viewBox="0 0 17 17" fill="none" xmlns="http://www.w3.org/2000/svg">
<path d="M1 2C1 0.89543 1.89543 0 3 0H14C15.1046 0 16 0.895431 16 2V13C16 14.1046 15.1046 15 14 15H3C1.89543 15 1 14.1046 1 13V2Z" fill="white"/>
<path d="M7.35355 11.1133C7.15829 10.9181 7.15829 10.6015 7.35355 10.4062L11.5962 6.16357C11.7915 5.96831 12.108 5.96831 12.3033 6.16357L13.0104 6.87068C13.2057 7.06594 13.2057 7.38252 13.0104 7.57779L8.76777 11.8204C8.5725 12.0157 8.25592 12.0157 8.06066 11.8204L7.35355 11.1133Z" fill="#220E4B"/>
<rect x="4.76782" y="5.7207" width="7" height="2" rx="0.5" transform="rotate(45 4.76782 5.7207)" fill="#220E4B"/>
</svg>
