<svg width="16" height="15" viewBox="0 0 16 15" fill="none" xmlns="http://www.w3.org/2000/svg">
<path d="M7.14344 3.15855V6.46781H3.71718C1.83275 6.46781 2.00405 6.79874 2.00405 7.29513C2.00405 7.70879 1.83275 8.12245 3.71718 8.12245H7.14344V11.4317C7.14344 13.2518 7.57172 13.5 8 13.5C8.51394 13.5 8.85656 13.2518 8.85656 11.4317V8.12245H12.2828C14.1673 8.12245 13.9959 7.70879 13.9959 7.29513C13.9959 6.79874 14.1673 6.46781 12.2828 6.46781H8.85656V3.15855C8.85656 1.33845 8.51394 1.50392 8 1.50392C7.57172 1.50392 7.14344 1.33845 7.14344 3.15855Z" fill="#3983FA"/>
<rect x="0.5" y="0.5" width="15" height="14" stroke="#3983FA" stroke-miterlimit="1.30541"/>
</svg>
