<svg width="28" height="20" viewBox="0 0 28 20" fill="none" xmlns="http://www.w3.org/2000/svg">
<path d="M8.86667 1.86664C6.46667 2.66664 3.4 4.93331 1.93333 6.79997C-0.466668 10.1333 -0.466668 10.5333 1.53333 13.6C6.2 20.6666 16.8667 22.1333 23.5333 16.5333C28.6 12.4 28.7333 8.93331 24.3333 4.79997C20.2 0.933307 14.7333 -2.5455e-05 8.86667 1.86664ZM22.0667 6.13331C25.8 8.53331 25.8 10.4 22.0667 14.2666C17.9333 18.6666 10.0667 18.5333 5.53333 13.8666C2.06667 10.5333 2.06667 10.4 4.46667 7.73331C9.4 2.39997 15.4 1.86664 22.0667 6.13331Z" fill="#2374FF"/>
<path d="M10.8667 8.66663C9.8 11.4666 11.1333 14.6666 13.4 14.6666C16.0667 14.6666 18.7333 11.0666 17.8 8.66663C16.8667 6.13329 11.8 5.99996 10.8667 8.66663Z" fill="#2374FF"/>
</svg>
