<svg width="45" height="45" viewBox="0 0 45 45" fill="none" xmlns="http://www.w3.org/2000/svg">
<path d="M11.9333 2.99989C11.4 5.13322 10.0667 5.66656 5.8 5.66656C0.0666626 5.66656 -1.66667 8.06655 3 9.26655C5.53333 9.93322 5.66666 11.1332 5.66666 27.1332V44.4666L22.7333 44.0666L39.6667 43.6666L40.0667 26.5999C40.3333 12.7332 40.7333 9.66655 42.3333 9.66655C43.4 9.66655 44.3333 8.73322 44.3333 7.66655C44.3333 6.19989 42.8667 5.66656 39 5.66656C34.6 5.66656 33.6667 5.26656 33.6667 2.99989C33.6667 0.599889 32.7333 0.333222 23.1333 0.333222C13.8 0.333222 12.6 0.599889 11.9333 2.99989ZM36.0667 24.5999L35.6667 39.6666L22.7333 40.0666L9.66666 40.4666V24.9999V9.66655H23H36.4667L36.0667 24.5999Z" fill="#7D97AD"/>
<path d="M16.3333 24.9998C16.3333 31.7998 16.7333 33.6665 18.3333 33.6665C19.9333 33.6665 20.3333 31.7998 20.3333 24.9998C20.3333 18.1998 19.9333 16.3332 18.3333 16.3332C16.7333 16.3332 16.3333 18.1998 16.3333 24.9998Z" fill="#7D97AD"/>
<path d="M24.3333 24.9998C24.3333 31.7998 24.7333 33.6665 26.3333 33.6665C27.9333 33.6665 28.3333 31.7998 28.3333 24.9998C28.3333 18.1998 27.9333 16.3332 26.3333 16.3332C24.7333 16.3332 24.3333 18.1998 24.3333 24.9998Z" fill="#7D97AD"/>
</svg>
