<svg width="32" height="31" viewBox="0 0 32 31" fill="none" xmlns="http://www.w3.org/2000/svg">
<path d="M6.53553 2.2294C3.71807 4.86264 3.21495 9.15385 5.42867 11.9821C6.63616 13.5426 6.43491 14.0302 4.22119 15.8832C2.00747 17.7363 1.50435 19.1016 1.20248 24.5632L0.799988 31H6.43491C10.7617 31 12.0698 30.7074 12.0698 29.5371C12.0698 28.4643 10.963 28.0742 8.04489 28.0742H4.01994V24.1731C4.01994 17.5412 9.75549 13.6401 15.1892 16.3709C17.6041 17.7363 19.6166 16.761 18.2079 15.0055C17.4029 14.1277 17.5035 12.8599 18.6104 10.8118C22.5347 3.3022 12.573 -3.71978 6.53553 2.2294ZM15.491 4.27747C18.8116 7.39835 16.296 12.4698 11.5667 12.4698C10.0574 12.4698 8.44738 11.4945 7.44115 10.0316C5.93179 7.78846 5.93179 7.39835 7.44115 5.15522C9.353 2.32692 13.0761 1.93681 15.491 4.27747Z" fill="white"/>
<path d="M23.6416 17.3463C21.4279 19.4919 19.1135 21.0524 18.5098 20.8573C16.6986 20.1746 13.0761 23.1005 13.0761 25.1485C13.0761 26.2213 14.183 27.7818 15.4911 28.562C18.9123 30.8051 22.1322 29.0496 22.1322 25.051C22.1322 21.8326 24.346 20.3697 26.5597 22.1252C27.4653 22.9054 28.1697 22.9054 28.5721 22.3202C28.9746 21.8326 28.7734 21.1499 28.1697 20.7598C27.6665 20.4672 27.1634 19.4919 27.1634 18.6142C27.1634 17.2488 27.3647 17.2488 29.0753 18.7117C32.094 21.345 32.899 18.6142 29.9809 15.7859L27.5659 13.4452L23.6416 17.3463ZM19.4154 24.5634C20.1198 26.1238 19.3148 27.0991 17.4029 27.0991C16.6986 27.0991 16.0948 26.2213 16.0948 25.1485C16.0948 22.9054 18.6104 22.5153 19.4154 24.5634Z" fill="white"/>
</svg>
