<svg width="71" height="71" viewBox="0 0 71 71" fill="none" xmlns="http://www.w3.org/2000/svg">
<path d="M28.0994 25.4064C24.7246 25.4829 23.2129 25.8717 21.8468 27.0169C20.1702 28.4225 20.1275 28.5754 20.8009 29.8264C21.2531 30.6773 22.992 31.0938 25.7923 31.0303L30.0287 30.9344L31.4103 28.3705C32.1534 26.9861 32.7103 25.7579 32.6715 25.5561C32.6424 25.4048 30.6028 25.2991 28.0994 25.4064Z" fill="#74C4BA"/>
<path d="M34.4403 31.0766C37.8139 31.2802 39.3318 31.0171 40.7187 29.986C42.4207 28.7207 42.4663 28.5714 41.8172 27.2655C41.3815 26.3778 39.652 25.8174 36.8527 25.6485L32.6178 25.393L31.1885 27.8402C30.4196 29.1619 29.8397 30.343 29.8747 30.5478C29.9009 30.7014 31.9369 30.9762 34.4403 31.0766Z" fill="#74C4BA"/>
<path d="M27.8049 34.4478C24.4301 34.5243 22.9184 34.9131 21.5523 36.0584C19.8757 37.4639 19.833 37.6169 20.5064 38.8679C20.9586 39.7187 22.6975 40.1352 25.4978 40.0718L29.7342 39.9758L31.1158 37.412C31.8589 36.0275 32.4158 34.7993 32.377 34.5975C32.3479 34.4463 30.3083 34.3405 27.8049 34.4478Z" fill="#74C4BA"/>
<path d="M34.1458 40.1181C37.5194 40.3216 39.0373 40.0585 40.4242 39.0275C42.1262 37.7621 42.1718 37.6128 41.5227 36.3069C41.087 35.4193 39.3575 34.8589 36.5582 34.69L32.3233 34.4345L30.894 36.8817C30.1251 38.2033 29.5452 39.3844 29.5802 39.5892C29.6064 39.7428 31.6424 40.0177 34.1458 40.1181Z" fill="#74C4BA"/>
<path d="M27.8049 43.4478C24.4301 43.5243 22.9184 43.9131 21.5523 45.0584C19.8757 46.4639 19.833 46.6169 20.5064 47.8679C20.9586 48.7187 22.6975 49.1352 25.4978 49.0718L29.7342 48.9758L31.1158 46.412C31.8589 45.0275 32.4158 43.7993 32.377 43.5975C32.3479 43.4463 30.3083 43.3405 27.8049 43.4478Z" fill="#74C4BA"/>
<path d="M34.1458 49.1181C37.5194 49.3216 39.0373 49.0585 40.4242 48.0275C42.1262 46.7621 42.1718 46.6128 41.5227 45.3069C41.087 44.4193 39.3575 43.8589 36.5582 43.69L32.3233 43.4345L30.894 45.8817C30.1251 47.2033 29.5452 48.3844 29.5802 48.5892C29.6064 48.7428 31.6424 49.0177 34.1458 49.1181Z" fill="#74C4BA"/>
<path d="M50.2609 18.8089C48.5237 21.1797 48.8396 22.2739 52.314 26.4683C56.2622 31.0275 56.736 31.0275 59.1049 28.292C61.6317 25.3741 61.6317 24.827 59.1049 20.6326C56.1043 15.1616 53.1036 14.6145 50.2609 18.8089Z" fill="#74C4BA"/>
<path d="M15.5161 18.7469C14.2527 20.2854 13.7789 27.4652 14.0948 39.6026L14.5685 58.2359H33.5199H52.4712L52.945 47.9791C53.4188 37.8931 53.4188 37.8931 50.2603 40.9701C48.3651 42.8506 46.9438 46.4405 46.9438 49.1757V54.1332L33.204 53.6203L19.3064 53.1075L18.8326 38.0641L18.3588 23.1916H29.2558C39.2053 23.1916 43.7852 21.4821 43.7852 17.7212C43.7852 15.157 17.5692 16.1827 15.5161 18.7469Z" fill="#74C4BA"/>
<path d="M38.4053 34.808C32.7858 41.3724 30.9923 44.4451 30.9923 47.5177C30.9923 51.2887 31.2315 51.4284 34.938 50.5904C37.4488 50.0317 41.2749 46.8194 45.938 41.3724L52.9923 33.132L50.1228 29.5007C48.5684 27.5454 47.0141 26.009 46.5358 26.009C46.1772 26.009 42.4706 29.9197 38.4053 34.808Z" fill="#74C4BA"/>
</svg>
