<svg width="70" height="70" viewBox="0 0 70 70" fill="none" xmlns="http://www.w3.org/2000/svg">
<path d="M53.2609 12.7675C51.5237 15.1383 51.8396 16.2325 55.314 20.4269C59.2622 24.9861 59.736 24.9861 62.1049 22.2506C64.6317 19.3327 64.6317 18.7856 62.1049 14.5912C59.1043 9.12014 56.1036 8.57304 53.2609 12.7675Z" fill="#F8C630"/>
<path d="M15.5161 17.8732C14.2527 19.5145 13.7789 27.174 14.0948 40.122L14.5685 60H33.5199H52.4712L52.945 49.058C53.4188 38.2983 53.4188 38.2983 50.2603 41.5809C48.3651 43.587 46.9438 47.4167 46.9438 50.3346V55.6232L33.204 55.0761L19.3064 54.529L18.8326 38.4807L18.3588 22.6148H29.2558C39.2053 22.6148 43.7852 20.7911 43.7852 16.779C43.7852 14.0435 17.5692 15.1377 15.5161 17.8732Z" fill="#F8C630"/>
<path d="M37.7838 30.4567C30.3612 39.028 27.9923 43.0401 27.9923 47.0521C27.9923 51.976 28.3082 52.1584 33.2039 51.0642C36.5204 50.3347 41.5741 46.1403 47.7333 39.028L57.051 28.2683L53.2608 23.5268C51.2077 20.9737 49.1547 18.9676 48.5229 18.9676C48.0492 18.9676 43.1534 24.0739 37.7838 30.4567Z" fill="#F8C630"/>
</svg>
