<svg width="35" height="42" viewBox="0 0 35 42" fill="none" xmlns="http://www.w3.org/2000/svg">
<path d="M8 21V34H12.6H17.1L15.1 31.4C12.2 27.7 12.5 24.4 15.9 20.9C19 17.8 21 17.4 24.1 19C25.9 20 26 19.7 26 14V8H17H8V21Z" fill="#E54F6D"/>
<path d="M17.6 22.6001C14.3 25.8001 16.2 31.0001 20.7 31.0001C22 31.0001 23.9 31.5001 25 32.2001C27.2 33.6001 28.9 32.5001 27.2 30.8001C26.5 30.1001 26 28.4001 26 26.9001C26 23.7001 23.7 21.0001 21 21.0001C20 21.0001 18.4 21.7001 17.6 22.6001ZM23.4 24.9001C24.4 26.5001 22.9 29.0001 21 29.0001C19.1 29.0001 17.6 26.5001 18.6 24.9001C18.9 24.4001 20 24.0001 21 24.0001C22 24.0001 23.1 24.4001 23.4 24.9001Z" fill="#E54F6D"/>
</svg>
