<svg width="35" height="27" viewBox="0 0 35 27" fill="none" xmlns="http://www.w3.org/2000/svg">
<path d="M1.64473 1.12127C0.578939 1.48491 0.105255 5.24248 0.105255 13.6061C0.105255 23.3031 0.460518 25.6061 1.99999 26.2122C4.36841 27.1819 26.6316 27.1819 29 26.2122C31.8421 25.1213 31.8421 2.09097 29 1.00006C26.75 0.151573 3.77631 0.151573 1.64473 1.12127ZM28.5263 5.72733C28.5263 7.18188 26.2763 7.54551 15.5 7.54551C4.72368 7.54551 2.47368 7.18188 2.47368 5.72733C2.47368 4.27279 4.72368 3.90915 15.5 3.90915C26.2763 3.90915 28.5263 4.27279 28.5263 5.72733ZM28.5263 18.4546V23.3031H15.5H2.47368V18.4546V13.6061H15.5H28.5263V18.4546Z" fill="#724E91"/>
<path d="M21.3067 11.2341C17.9563 12.0173 15.4314 15.9332 16.1112 19.3597C16.4996 21.5624 18.8789 24.2546 21.0154 24.9399C26.211 26.702 31.6008 21.4155 29.9984 16.178C29.4157 14.0732 26.5994 11.2341 25.0942 11.2341C24.6086 11.2341 23.9288 11.1362 23.5404 11.0383C23.2005 10.9404 22.1808 11.0383 21.3067 11.2341ZM27.2307 14.1221C28.4931 15.4438 28.7359 16.0311 28.7359 18.087C28.7359 20.1918 28.4931 20.7303 27.1336 22.1008C25.774 23.4714 25.2398 23.7161 23.1519 23.7161C21.064 23.7161 20.5298 23.4714 19.1702 22.1008C17.8107 20.7303 17.5679 20.1918 17.5679 18.136C17.5679 15.5906 18.7818 13.6326 20.9668 12.6537C22.7634 11.8705 25.6283 12.5068 27.2307 14.1221Z" fill="#F8C630"/>
<path d="M28.3594 14.6393C23.9832 18.5679 23.4511 18.7033 21.6753 16.4603C19.8995 14.2173 18.2043 14.0498 17.67 16.1023C17.5698 16.4871 18.6477 18.5484 20.1079 20.5723L22.8625 24.3029L28.8695 18.8813C32.7633 15.375 34.5115 12.9537 34.014 12.0024C33.4336 10.8924 31.5875 11.7815 28.3594 14.6393Z" fill="#E54F6D"/>
</svg>
