<svg width="35" height="30" viewBox="0 0 35 30" fill="none" xmlns="http://www.w3.org/2000/svg">
<path d="M1.73664 0.839394C0.534351 1.25011 0 5.49414 0 14.9405C0 25.8929 0.400763 28.4941 2.1374 29.1786C4.80916 30.2738 29.9237 30.2738 32.5954 29.1786C35.8015 27.9464 35.8015 1.93463 32.5954 0.70249C30.0573 -0.25584 4.14122 -0.25584 1.73664 0.839394ZM32.0611 6.04176C32.0611 7.68461 29.5229 8.09532 17.3664 8.09532C5.20992 8.09532 2.67176 7.68461 2.67176 6.04176C2.67176 4.3989 5.20992 3.98819 17.3664 3.98819C29.5229 3.98819 32.0611 4.3989 32.0611 6.04176ZM32.0611 20.4167V25.8929H17.3664H2.67176V20.4167V14.9405H17.3664H32.0611V20.4167Z" fill="#F8C630"/>
<path d="M8.54865 26.4545V17.4545H10.3384V18.554H10.4194C10.4989 18.3778 10.614 18.1989 10.7646 18.017C10.918 17.8324 11.1168 17.679 11.3612 17.5568C11.6083 17.4318 11.9151 17.3693 12.2816 17.3693C12.7589 17.3693 13.1992 17.4943 13.6026 17.7443C14.006 17.9915 14.3285 18.3651 14.57 18.8651C14.8114 19.3622 14.9322 19.9858 14.9322 20.7358C14.9322 21.4659 14.8143 22.0824 14.5785 22.5852C14.3455 23.0852 14.0273 23.4645 13.6239 23.723C13.2234 23.9787 12.7745 24.1065 12.2773 24.1065C11.9251 24.1065 11.6254 24.0483 11.3782 23.9318C11.1339 23.8153 10.9336 23.669 10.7773 23.4929C10.6211 23.3139 10.5018 23.1335 10.4194 22.9517H10.364V26.4545H8.54865ZM10.3256 20.7273C10.3256 21.1165 10.3796 21.456 10.4876 21.7457C10.5955 22.0355 10.7518 22.2614 10.9563 22.4233C11.1609 22.5824 11.4094 22.6619 11.7021 22.6619C11.9975 22.6619 12.2475 22.581 12.4521 22.419C12.6566 22.2543 12.8114 22.027 12.9165 21.7372C13.0245 21.4446 13.0785 21.108 13.0785 20.7273C13.0785 20.3494 13.0259 20.017 12.9208 19.7301C12.8157 19.4432 12.6609 19.2187 12.4563 19.0568C12.2518 18.8949 12.0004 18.8139 11.7021 18.8139C11.4066 18.8139 11.1566 18.892 10.9521 19.0483C10.7504 19.2045 10.5955 19.4261 10.4876 19.7131C10.3796 20 10.3256 20.3381 10.3256 20.7273ZM18.0089 24.1236C17.5913 24.1236 17.2191 24.0511 16.8924 23.9062C16.5657 23.7585 16.3072 23.5412 16.1168 23.2543C15.9293 22.9645 15.8356 22.6037 15.8356 22.1719C15.8356 21.8082 15.9023 21.5028 16.0359 21.2557C16.1694 21.0085 16.3512 20.8097 16.5813 20.6591C16.8114 20.5085 17.0728 20.3949 17.3654 20.3182C17.6609 20.2415 17.9705 20.1875 18.2944 20.1562C18.6751 20.1165 18.9819 20.0795 19.2148 20.0455C19.4478 20.0085 19.6168 19.9545 19.7219 19.8835C19.8271 19.8125 19.8796 19.7074 19.8796 19.5682V19.5426C19.8796 19.2727 19.7944 19.0639 19.6239 18.9162C19.4563 18.7685 19.2177 18.6946 18.908 18.6946C18.5813 18.6946 18.3214 18.767 18.1282 18.9119C17.935 19.054 17.8072 19.233 17.7447 19.4489L16.0657 19.3125C16.1509 18.9148 16.3185 18.571 16.5685 18.2812C16.8185 17.9886 17.141 17.7642 17.5359 17.608C17.9336 17.4489 18.3938 17.3693 18.9165 17.3693C19.2802 17.3693 19.6282 17.4119 19.9606 17.4972C20.2958 17.5824 20.5927 17.7145 20.8512 17.8935C21.1126 18.0724 21.3185 18.3026 21.4691 18.5838C21.6197 18.8622 21.695 19.196 21.695 19.5852V24H19.9734V23.0923H19.9222C19.8171 23.2969 19.6765 23.4773 19.5004 23.6335C19.3242 23.7869 19.1126 23.9077 18.8654 23.9957C18.6183 24.081 18.3327 24.1236 18.0089 24.1236ZM18.5288 22.8707C18.7958 22.8707 19.0316 22.8182 19.2362 22.7131C19.4407 22.6051 19.6012 22.4602 19.7177 22.2784C19.8342 22.0966 19.8924 21.8906 19.8924 21.6605V20.9659C19.8356 21.0028 19.7575 21.0369 19.658 21.0682C19.5614 21.0966 19.4521 21.1236 19.3299 21.1491C19.2077 21.1719 19.0856 21.1932 18.9634 21.2131C18.8413 21.2301 18.7305 21.2457 18.631 21.2599C18.418 21.2912 18.2319 21.3409 18.0728 21.4091C17.9137 21.4773 17.7901 21.5696 17.7021 21.6861C17.614 21.7997 17.57 21.9418 17.57 22.1122C17.57 22.3594 17.6594 22.5483 17.8384 22.679C18.0202 22.8068 18.2504 22.8707 18.5288 22.8707ZM23.9897 26.4545C23.7596 26.4545 23.5437 26.4361 23.342 26.3991C23.1431 26.3651 22.9783 26.321 22.8477 26.267L23.2567 24.9119C23.4698 24.9773 23.6616 25.0128 23.832 25.0185C24.0053 25.0241 24.1545 24.9844 24.2795 24.8991C24.4073 24.8139 24.511 24.669 24.5906 24.4645L24.6971 24.1875L22.3491 17.4545H24.2582L25.6133 22.2614H25.6815L27.0494 17.4545H28.9712L26.4272 24.7074C26.305 25.0597 26.1388 25.3665 25.9286 25.6278C25.7212 25.892 25.4585 26.0952 25.1403 26.2372C24.8221 26.3821 24.4386 26.4545 23.9897 26.4545Z" fill="#E54F6D"/>
</svg>
