<svg width="45" height="41" viewBox="0 0 45 41" fill="none" xmlns="http://www.w3.org/2000/svg">
<path d="M3.71224 4.89046C-0.953868 10.8904 -1.09527 11.4618 2.58106 11.4618C5.26761 11.4618 5.40901 12.4618 5.40901 25.7474C5.40901 39.033 5.55041 40.033 8.23695 40.033C10.9235 40.033 11.0649 39.033 11.0649 25.7474C11.0649 12.4618 11.2063 11.4618 13.8928 11.4618C15.4482 11.4618 16.7208 11.1761 16.7208 10.6047C16.7208 9.6047 9.08534 0.0333661 8.23695 0.0333661C7.81276 0.0333661 5.8332 2.31906 3.71224 4.89046Z" fill="#74C4BA"/>
<path d="M19.5485 2.8902C19.5485 5.17589 20.5382 5.74731 23.7904 5.74731C27.0425 5.74731 28.0323 5.17589 28.0323 2.8902C28.0323 0.604509 27.0425 0.0330863 23.7904 0.0330863C20.5382 0.0330863 19.5485 0.604509 19.5485 2.8902Z" fill="#74C4BA"/>
<path d="M19.5485 14.3189C19.5485 16.7475 20.5382 17.176 26.6183 17.176C32.6984 17.176 33.6882 16.7475 33.6882 14.3189C33.6882 11.8904 32.6984 11.4618 26.6183 11.4618C20.5382 11.4618 19.5485 11.8904 19.5485 14.3189Z" fill="#74C4BA"/>
<path d="M19.5485 25.7471C19.5485 28.3185 20.5382 28.6042 29.4463 28.6042C38.3543 28.6042 39.3441 28.3185 39.3441 25.7471C39.3441 23.1757 38.3543 22.89 29.4463 22.89C20.5382 22.89 19.5485 23.1757 19.5485 25.7471Z" fill="#74C4BA"/>
<path d="M19.5485 37.1758C19.5485 39.8901 20.5382 40.033 32.2742 40.033C44.0102 40.033 45 39.8901 45 37.1758C45 34.4616 44.0102 34.3187 32.2742 34.3187C20.5382 34.3187 19.5485 34.4616 19.5485 37.1758Z" fill="#74C4BA"/>
</svg>
