<svg width="71" height="71" viewBox="0 0 71 71" fill="none" xmlns="http://www.w3.org/2000/svg">
<path d="M36.0342 14.1882C34.9448 14.702 32.3507 16.531 28.7514 19.3191C28.4384 19.5657 27.2166 20.4905 26.0429 21.3811C23.7979 23.0868 23.3103 23.5321 22.895 24.2856C22.5038 24.9706 22.3714 25.5598 22.3052 26.8956C22.2691 27.6354 22.251 33.4651 22.2631 42.4939C22.2811 55.2424 22.2932 56.955 22.3774 57.2907C22.5941 58.1675 22.9191 58.5717 23.6053 58.8183C24.0146 58.9621 24.1109 58.969 26.5545 58.969C28.7875 58.969 29.1306 58.9553 29.4737 58.8457C30.226 58.6128 30.6052 58.099 30.7436 57.1194C30.7797 56.8317 30.8279 54.8314 30.858 52.1529C30.9122 47.1864 30.9182 47.0973 31.3094 46.1451C31.7789 44.9943 32.6396 44.4462 34.2285 44.275C35.0471 44.1859 38.7668 44.1859 39.5853 44.275C41.4271 44.4736 42.3781 45.2409 42.7392 46.837C42.9077 47.57 42.9499 48.5907 42.98 52.6324C42.998 55.0437 43.0401 56.8933 43.0763 57.1536C43.2147 58.1195 43.5818 58.6059 44.3522 58.8525C44.6833 58.9553 45.0384 58.969 47.2594 58.969C49.703 58.969 49.7993 58.9621 50.2086 58.8183C50.8947 58.5717 51.2198 58.1675 51.4364 57.2907C51.5207 56.955 51.5327 55.2424 51.5508 42.4596C51.5628 33.2322 51.5448 27.5875 51.5087 26.8545C51.4364 25.505 51.31 25.0049 50.8827 24.3199C50.4794 23.6759 50.0641 23.2786 48.7761 22.299C48.1381 21.8126 46.8741 20.8536 45.9653 20.1548C45.0504 19.463 43.955 18.6272 43.5277 18.3052C43.0943 17.9833 42.041 17.1818 41.1803 16.5241C39.5071 15.2431 38.195 14.3526 37.6412 14.1334C37.1356 13.9279 36.5338 13.9484 36.0342 14.1882ZM38.7547 20.9358C40.1029 21.34 41.6077 22.4292 42.4202 23.5869C43.1304 24.6007 43.6601 25.7173 43.9069 26.7243C44.0573 27.3477 44.0694 27.471 44.0633 28.7589C44.0633 30.0194 44.0453 30.1838 43.9008 30.814C43.6059 32.0608 42.691 33.883 41.9146 34.7667C41.078 35.712 39.7238 36.6094 38.7246 36.8766C37.5991 37.178 36.0944 37.178 35.023 36.8766C34.7702 36.8012 34.2647 36.5752 33.8975 36.3696C32.5914 35.6367 31.6043 34.6571 30.8459 33.3486C29.8528 31.6292 29.5459 30.4098 29.6121 28.526C29.6542 27.2998 29.7987 26.649 30.2561 25.6077C31.1349 23.6074 32.2243 22.3538 33.8975 21.429C34.9147 20.8604 35.643 20.7097 37.1176 20.744C38.0084 20.7577 38.2612 20.7919 38.7547 20.9358Z" fill="#FFB634"/>
<path d="M14.6974 31.4717C12.8676 31.6293 12.1273 32.3006 11.9528 33.9584C11.9167 34.3078 11.8986 38.7811 11.9106 45.8164L11.9287 57.1195L12.0671 57.5853C12.2417 58.1676 12.5787 58.5855 13.0181 58.7567C13.4755 58.9348 14.4265 59.0239 15.3293 58.9828C16.6896 58.9074 17.2012 58.6745 17.5082 57.9758C17.8392 57.2428 17.8272 57.6675 17.8272 45.0628C17.8272 33.8625 17.8211 33.3282 17.7128 32.8897C17.4961 31.9855 16.9966 31.5813 15.9493 31.4649C15.6243 31.4306 15.3474 31.4032 15.3293 31.4101C15.3113 31.4101 15.0284 31.4375 14.6974 31.4717Z" fill="#FFB634"/>
<path d="M57.7863 31.4719C57.1604 31.5404 56.739 31.746 56.4501 32.1227C56.1672 32.4789 56.095 32.7461 56.0108 33.623C55.9205 34.63 55.9746 56.7977 56.0649 57.2567C56.2515 58.1473 56.6307 58.6336 57.3108 58.8323C58.1294 59.0721 60.0915 59.031 60.7957 58.7569C61.2351 58.5857 61.5722 58.1678 61.7467 57.5855L61.8852 57.1197L61.9032 45.7824C61.9152 38.4799 61.8972 34.26 61.8611 33.9244C61.6805 32.3625 60.9462 31.6501 59.3572 31.4993C58.5026 31.4171 58.2618 31.4171 57.7863 31.4719Z" fill="#FFB634"/>
<path d="M36.4081 26.0593C36.3003 26.0704 36.2277 26.1036 36.178 26.1645C36.1293 26.222 36.1169 26.2652 36.1023 26.4069C36.0868 26.5696 36.0961 30.1517 36.1117 30.2258C36.1438 30.3697 36.2091 30.4483 36.3262 30.4804C36.4671 30.5192 36.805 30.5125 36.9262 30.4682C37.0019 30.4406 37.0599 30.373 37.09 30.279L37.1138 30.2037L37.1169 28.3717C37.119 27.1917 37.1159 26.5098 37.1097 26.4556C37.0786 26.2032 36.9521 26.0881 36.6786 26.0637C36.5314 26.0504 36.4899 26.0504 36.4081 26.0593Z" fill="#FFB634"/>
<path d="M41.624 29.9356C41.6103 29.849 41.569 29.7908 41.4933 29.7508C41.4217 29.7117 41.368 29.7017 41.1918 29.69C40.9894 29.6775 36.5348 29.685 36.4426 29.6975C36.2637 29.7233 36.1659 29.7758 36.126 29.8699C36.0778 29.9831 36.0861 30.2545 36.1411 30.3519C36.1756 30.4127 36.2595 30.4593 36.3765 30.4835L36.4701 30.5026L38.7484 30.5051C40.2158 30.5068 41.0638 30.5043 41.1312 30.4993C41.4451 30.4743 41.5882 30.3727 41.6185 30.1529C41.635 30.0347 41.635 30.0014 41.624 29.9356Z" fill="#FFB634"/>
</svg>
