<svg width="31" height="32" viewBox="0 0 31 32" fill="none" xmlns="http://www.w3.org/2000/svg">
<path d="M12.7 0.981005C12.1 1.58101 11.5 2.68101 11.5 3.38101C11.5 4.08101 10 4.48101 7.8 4.38101C4.1 4.28101 4 4.38101 4.1 7.88101C4.2 10.581 3.7 11.681 2.1 12.381C-0.7 13.581 -0.7 17.981 2.1 19.181C3.7 19.881 4.2 20.981 4.1 23.681C4 27.181 4.1 27.281 7.6 27.181C10.3 27.081 11.4 27.581 12.1 29.181C13.3 31.981 17.7 31.981 18.9 29.181C19.6 27.581 20.7 27.081 23.4 27.181C26.9 27.281 27 27.181 26.9 23.681C26.8 20.981 27.3 19.881 28.9 19.181C31.7 17.981 31.7 13.581 28.9 12.381C27.3 11.681 26.8 10.581 26.9 7.88101C27 4.38101 26.9 4.28101 23.4 4.38101C20.7 4.48101 19.6 3.98101 18.9 2.38101C17.8 -0.0189946 14.5 -0.818995 12.7 0.981005ZM17.2 4.68101C17.8 7.18101 20.3 8.18101 22.1 6.68101C24.1 5.08101 25.7 6.48101 24.5 8.78101C23.2 11.181 24.1 13.581 26.6 14.281C29.1 15.081 29 16.781 26.6 17.481C24.1 18.081 23.1 20.581 24.6 22.381C26.2 24.381 24.8 25.981 22.5 24.781C20.1 23.481 17.8 24.381 17.2 26.881C16.5 29.281 14.8 29.381 14 26.881C13.3 24.481 10.6 23.381 8.9 24.881C6.9 26.481 5.3 25.081 6.5 22.781C7.8 20.381 6.9 18.081 4.4 17.481C2.5 16.981 1.7 14.781 3.4 14.781C3.9 14.781 5.1 14.081 5.9 13.181C7.1 11.981 7.2 11.181 6.5 9.68101C5 7.08101 6.1 5.48101 8.5 6.78101C10.9 8.08101 13.3 7.18101 14 4.68101C14.8 2.18101 16.5 2.28101 17.2 4.68101Z" fill="white"/>
<path d="M11.7 11.9811C10.2 13.4811 10.2 18.0811 11.7 19.5811C13.2 21.0811 17.8 21.0811 19.3 19.5811C20.8 18.0811 20.8 13.4811 19.3 11.9811C18.6 11.2811 16.9 10.7811 15.5 10.7811C14.1 10.7811 12.4 11.2811 11.7 11.9811ZM17.5 14.3811C18.6 15.5811 18.5 16.1811 17.2 17.5811C15.6 19.0811 15.4 19.0811 13.8 17.5811C12.5 16.1811 12.4 15.5811 13.5 14.3811C14.2 13.4811 15.1 12.7811 15.5 12.7811C15.9 12.7811 16.8 13.4811 17.5 14.3811Z" fill="white"/>
</svg>
