<svg width="32" height="25" viewBox="0 0 32 25" fill="none" xmlns="http://www.w3.org/2000/svg">
<path d="M29.5 22C31.2 20.3 31.5 18.7 31.5 12C31.5 2.4 29.9 1.39876e-07 23.5 6.99382e-07C20.2 9.87877e-07 19.5 0.300001 19.5 1.9C19.5 3.5 20.3 3.9 23.2 4.2L27 4.5L27 12L27 19.5L23.2 19.8C20.3 20.1 19.5 20.5 19.5 22.1C19.5 24.8 26.7 24.8 29.5 22Z" fill="white"/>
<path d="M12.8 23.2999C13.2 22.9999 13.5 21.1999 13.5 19.2999L13.5 15.9999L18.5 15.9999L23.5 15.9999L23.5 11.9999L23.5 7.99992L18.5 7.99992L13.5 7.99992L13.5 4.59992C13.5 2.69992 13.1 0.799924 12.5 0.499924C11.1 -0.300075 0.500001 9.89993 0.500001 11.9999C0.500001 12.8999 2.9 15.9999 5.9 18.8999C11.7 24.2999 11.8 24.3999 12.8 23.2999Z" fill="white"/>
</svg>
    