<svg width="32" height="25" viewBox="0 0 32 25" fill="none" xmlns="http://www.w3.org/2000/svg">
<path d="M19.5 2.01279C19.5 3.61279 20.3 4.01279 23.3 4.31279L27 4.61279V12.1128V19.6128L23.3 19.9128C20.3 20.2128 19.5 20.6128 19.5 22.2128C19.5 23.8128 20.2 24.1128 23.5 24.1128C29.9 24.1128 31.5 21.7128 31.5 12.1128C31.5 2.51279 29.9 0.112793 23.5 0.112793C20.2 0.112793 19.5 0.412793 19.5 2.01279Z" fill="white"/>
<path d="M9.5 4.51279C9.5 7.91279 9.4 8.01279 4.8 8.31279L0 8.61279V12.6128V16.6128L4.8 16.9128C9.4 17.2128 9.5 17.3128 9.5 20.7128C9.5 22.8128 10 24.1128 10.8 24.1128C12.3 24.1128 22.5 14.0128 22.5 12.5128C22.5 11.1128 12.2 1.11279 10.7 1.11279C10 1.11279 9.5 2.51279 9.5 4.51279Z" fill="white"/>
</svg>
