<svg width="71" height="71" viewBox="0 0 71 71" fill="none" xmlns="http://www.w3.org/2000/svg">
<path d="M27.1377 13.353C21.7421 19.2357 29.2575 28.9839 36.3874 25.1183C43.1319 21.4207 40.6268 11 32.9187 11C30.9918 11 28.4867 12.1765 27.1377 13.353Z" fill="#1183E1"/>
<path d="M13.0739 19.7357C12.5577 20.8713 14.7945 24.8463 18.2356 28.8212L24.4296 35.8246V53.2383C24.4296 69.327 24.6016 70.6521 27.8707 70.6521C30.7956 70.6521 31.3117 69.327 31.3117 62.1344C31.3117 57.4023 32.172 53.6168 33.0323 53.6168C34.0647 53.6168 34.7528 57.4023 34.7528 62.1344C34.7528 69.327 35.2691 70.6521 38.194 70.6521C41.4631 70.6521 41.6351 69.327 41.6351 53.2383V35.8246L48.0011 28.6318C52.9907 22.9535 53.851 20.8713 52.3026 19.1679C50.754 17.4643 49.0335 18.2215 44.56 22.9535C36.8175 31.0925 28.7309 31.2817 21.8487 23.332C16.515 17.2751 14.9665 16.5179 13.0739 19.7357Z" fill="#1183E1"/>
</svg>
