<svg width="70" height="70" viewBox="0 0 70 70" fill="none" xmlns="http://www.w3.org/2000/svg">
<path d="M30.1299 16.3621C20.7488 18.555 13.6789 29.5196 15.5823 39.1136C16.67 45.2812 23.332 52.8193 29.3142 54.7381C43.8618 59.6722 58.9532 44.87 54.4666 30.2049C52.8351 24.3114 44.9495 16.3621 40.7347 16.3621C39.3752 16.3621 37.4717 16.0879 36.3841 15.8138C35.4323 15.5397 32.5772 15.8138 30.1299 16.3621ZM46.7169 24.4485C50.2519 28.149 50.9317 29.7937 50.9317 35.5501C50.9317 41.4436 50.2519 42.9512 46.445 46.7888C42.6382 50.6264 41.1426 51.3117 35.2964 51.3117C29.4502 51.3117 27.9546 50.6264 24.1477 46.7888C20.3409 42.9512 19.6611 41.4436 19.6611 35.6872C19.6611 28.5602 23.0601 23.0779 29.1782 20.3367C34.2087 18.1438 42.2303 19.9256 46.7169 24.4485Z" fill="#724E91"/>
<path d="M37.0638 32.672C33.3929 37.7432 32.8491 38.0173 30.2659 36.2355C27.6827 34.4538 25.7792 34.7279 25.7792 36.9208C25.7792 37.332 27.5467 39.1137 29.722 40.7584L33.8008 43.7737L38.8313 36.7838C42.0943 32.2609 43.3179 29.3827 42.5022 28.5603C41.5505 27.6009 39.783 28.9715 37.0638 32.672Z" fill="#724E91"/>
</svg>
