<svg width="31" height="31" viewBox="0 0 31 31" fill="none" xmlns="http://www.w3.org/2000/svg">
<path d="M7.25765 2.1323C-5.74235 10.0323 -0.142344 30.1323 15.0577 30.1323C23.5577 30.1323 30.0576 23.6323 30.0576 15.1323C30.0576 3.5323 17.1576 -3.8677 7.25765 2.1323ZM19 6.5C20.4 7.8 21.0576 9.9 21.0576 10.5C21.0576 11.1 20.9 13.8323 19.5 15.1323C18.2 16.5323 15.6577 17.5 15.0577 17.5C11 16.5 9.5 12.5323 9.5 11.1323C9.5 10.5323 9.6 8.3 11 7C12.3 5.6 13 5.1323 15.0577 5.1323C15.6577 5.1323 17.7 5.1 19 6.5ZM22.4576 20.9323C23.9576 22.7323 23.9576 22.9323 21.9576 24.7323C20.4576 26.0323 18.3577 26.6323 15.0577 26.6323C11.7577 26.6323 9.65765 26.0323 8.15765 24.7323C6.15765 22.9323 6.15765 22.7323 7.65765 20.9323C8.95765 19.6323 10.7577 19.1323 15.0577 19.1323C19.3577 19.1323 21.1576 19.6323 22.4576 20.9323Z" fill="white"/>
</svg>
