<svg width="36" height="40" viewBox="0 0 36 40" fill="none" xmlns="http://www.w3.org/2000/svg">
<circle cx="18" cy="18" r="18" fill="#FF7F56"/>
<path d="M18 9.64239C19.3119 9.64239 20.508 10.1697 21.3692 11.0316C22.2311 11.8934 22.7584 13.0765 22.7584 14.4008C22.7584 15.7126 22.2311 16.8957 21.3692 17.7573C20.508 18.6191 19.3119 19.1591 18 19.1591C16.6882 19.1591 15.4927 18.6191 14.6308 17.7573C13.7821 16.8955 13.2417 15.7124 13.2417 14.4008C13.2417 13.0765 13.7821 11.8934 14.6308 11.0316C15.4927 10.1697 16.6882 9.64239 18 9.64239ZM18 5.24463C21.6396 5.24463 24.9187 6.72341 27.3107 9.10259C29.6898 11.4818 31.156 14.7747 31.156 18.4004C31.156 22.04 29.6898 25.3191 27.3107 27.711C25.1758 29.8332 22.3211 31.2349 19.1577 31.5049L19.0677 31.5179H18.9907L18.9134 31.5306H18.823L18.7073 31.5433H18.6685L18.5401 31.5429H18.5144L18.5018 31.5555H17.5114L17.4987 31.5429H17.2926L17.1769 31.5302H17.1512L17.1001 31.5304L17.0101 31.5177H16.9326L16.8556 31.5047C13.6787 31.2347 10.8241 29.8328 8.70216 27.7108C6.32359 25.319 4.8446 22.0398 4.8446 18.4002C4.8446 14.7736 6.32379 11.4815 8.70257 9.10239C11.0816 6.72321 14.3736 5.24463 18.0003 5.24463L18 5.24463ZM26.6678 9.74545C24.4425 7.52075 21.3825 6.15769 18 6.15769C14.6178 6.15769 11.5576 7.52075 9.34563 9.74566C7.12052 11.9577 5.75746 15.0181 5.75746 18.4006C5.75746 21.384 6.8248 24.1235 8.5993 26.2455L8.5991 25.7312C8.5991 24.342 9.16522 23.0816 10.0783 22.1689C10.9909 21.2559 12.2513 20.6898 13.6275 20.6898H22.3729C23.7617 20.6898 25.0221 21.2559 25.9352 22.1689C26.8352 23.0816 27.4139 24.342 27.4139 25.7312V26.2455C29.1886 24.1236 30.2556 21.3841 30.2556 18.4006C30.2556 15.0183 28.8798 11.9581 26.6682 9.74566L26.6678 9.74545ZM9.4994 27.2219C11.5955 29.2411 14.4116 30.5272 17.5238 30.6433H17.6907L17.845 30.656L17.9999 30.6558H18.1542L18.3091 30.6431H18.3344H18.4632H18.4885C21.5881 30.527 24.4043 29.2413 26.5005 27.2217L26.5001 25.7307C26.5001 24.5858 26.0375 23.5572 25.2914 22.8115C24.5322 22.0654 23.5034 21.6023 22.3722 21.6023H13.6273C12.4954 21.6023 11.4668 22.065 10.7211 22.8115C9.96195 23.5572 9.49929 24.5858 9.49929 25.7307L9.4994 27.2219ZM18.3343 30.6433H18.4631H18.3343ZM20.7266 11.6744C20.0323 10.9801 19.0674 10.5425 18 10.5425C16.9327 10.5425 15.9812 10.9799 15.2735 11.6744C14.5792 12.3687 14.1547 13.3336 14.1547 14.4009C14.1547 15.4558 14.579 16.4201 15.2735 17.1144C15.9808 17.8213 16.9327 18.2462 18 18.2462C19.0674 18.2462 20.0323 17.8219 20.7266 17.1144C21.4208 16.4201 21.8584 15.4552 21.8584 14.4009C21.858 13.3332 21.4209 12.3687 20.7266 11.6744Z" fill="black"/>
</svg>
